<svg width="80" height="80" viewBox="0 0 80 80" fill="none" xmlns="http://www.w3.org/2000/svg">
<path d="M71.5625 16.4062H29.375C27.9922 16.4062 26.875 17.5234 26.875 18.9062V37.3438H8.4375C7.05469 37.3438 5.9375 38.4609 5.9375 39.8438V61.0938C5.9375 62.4766 7.05469 63.5938 8.4375 63.5938H50.625C52.0078 63.5938 53.125 62.4766 53.125 61.0938V42.6562H71.5625C72.9453 42.6562 74.0625 41.5391 74.0625 40.1562V18.9062C74.0625 17.5234 72.9453 16.4062 71.5625 16.4062ZM47.8125 58.2812H32.1875V42.6562H47.8125V58.2812ZM68.75 37.3438H53.125V21.7188H68.75V37.3438Z" fill="#086CB6"/>
</svg>
