<svg width="126" height="126" viewBox="0 0 126 126" fill="none" xmlns="http://www.w3.org/2000/svg">
<path d="M100.013 25.7775C95.1986 20.9166 89.4654 17.0624 83.1469 14.4394C76.8285 11.8165 70.0512 10.4774 63.21 10.5C34.545 10.5 11.1825 33.8625 11.1825 62.5275C11.1825 71.715 13.5975 80.64 18.1125 88.515L10.7625 115.5L38.325 108.255C45.9375 112.403 54.495 114.608 63.21 114.608C91.875 114.608 115.238 91.245 115.238 62.58C115.238 48.6675 109.83 35.595 100.013 25.7775ZM63.21 105.788C55.44 105.788 47.8275 103.688 41.16 99.75L39.585 98.805L23.205 103.11L27.5625 87.15L26.5125 85.5225C22.1946 78.6296 19.9024 70.6612 19.8975 62.5275C19.8975 38.6925 39.3225 19.2675 63.1575 19.2675C74.7075 19.2675 85.575 23.7825 93.7125 31.9725C97.7425 35.9828 100.936 40.7534 103.108 46.0075C105.28 51.2616 106.387 56.8947 106.365 62.58C106.47 86.415 87.045 105.788 63.21 105.788ZM86.94 73.4475C85.6275 72.8175 79.2225 69.6675 78.0675 69.195C76.86 68.775 76.02 68.565 75.1275 69.825C74.235 71.1375 71.7675 74.0775 71.0325 74.9175C70.2975 75.81 69.51 75.915 68.1975 75.2325C66.885 74.6025 62.685 73.185 57.75 68.775C53.865 65.31 51.2925 61.0575 50.505 59.745C49.77 58.4325 50.4 57.75 51.0825 57.0675C51.66 56.49 52.395 55.545 53.025 54.81C53.655 54.075 53.9175 53.4975 54.3375 52.6575C54.7575 51.765 54.5475 51.03 54.2325 50.4C53.9175 49.77 51.2925 43.365 50.2425 40.74C49.1925 38.22 48.09 38.535 47.3025 38.4825H44.7825C43.89 38.4825 42.525 38.7975 41.3175 40.11C40.1625 41.4225 36.8025 44.5725 36.8025 50.9775C36.8025 57.3825 41.475 63.5775 42.105 64.4175C42.735 65.31 51.2925 78.435 64.3125 84.0525C67.41 85.4175 69.825 86.205 71.715 86.7825C74.8125 87.78 77.6475 87.6225 79.905 87.3075C82.425 86.94 87.6225 84.1575 88.6725 81.1125C89.775 78.0675 89.775 75.495 89.4075 74.9175C89.04 74.34 88.2525 74.0775 86.94 73.4475Z" fill="#F8F8F8"/>
</svg>
