<svg width="127" height="127" viewBox="0 0 127 127" fill="none" xmlns="http://www.w3.org/2000/svg">
<path d="M37.0416 10.5833H89.9583C92.7652 10.5833 95.4571 11.6984 97.4419 13.6831C99.4266 15.6679 100.542 18.3598 100.542 21.1667V47.625H26.4583V21.1667C26.4583 18.3598 27.5733 15.6679 29.5581 13.6831C31.5429 11.6984 34.2348 10.5833 37.0416 10.5833ZM100.542 100.542C100.542 103.349 99.4266 106.04 97.4419 108.025C95.4571 110.01 92.7652 111.125 89.9583 111.125V116.417H79.375V111.125H47.625V116.417H37.0416V111.125C34.2348 111.125 31.5429 110.01 29.5581 108.025C27.5733 106.04 26.4583 103.349 26.4583 100.542V52.9167H100.542V100.542ZM42.3333 26.4583V37.0417H52.9166V26.4583H42.3333ZM42.3333 63.5V79.375H52.9166V63.5H42.3333Z" fill="#086CB6"/>
</svg>
