<svg width="118" height="118" viewBox="0 0 118 118" fill="none" xmlns="http://www.w3.org/2000/svg">
<g clip-path="url(#clip0_101_192)">
<path d="M103.25 9.83334H14.75C12.0346 9.83334 9.83333 12.0346 9.83333 14.75V103.25C9.83333 105.965 12.0346 108.167 14.75 108.167H103.25C105.965 108.167 108.167 105.965 108.167 103.25V14.75C108.167 12.0346 105.965 9.83334 103.25 9.83334Z" stroke="#086CB6" stroke-width="6.66667"/>
<path d="M108.167 59C108.167 31.846 86.154 9.83334 59 9.83334C31.846 9.83334 9.83333 31.846 9.83333 59C9.83333 86.154 31.846 108.167 59 108.167C86.154 108.167 108.167 86.154 108.167 59Z" stroke="#086CB6" stroke-width="6.66667"/>
<path d="M73.75 46.7083C76.2083 45.0711 78.175 38.35 76.2083 34.4167C74.2417 30.4833 65.5539 27.8628 63.9167 27.0417M44.1762 70.8098C41.7179 72.4471 39.7512 79.1682 41.7179 83.1015C43.6846 87.0348 52.3723 89.6554 54.0096 90.4765M46.9148 43.9747C45.2727 41.5163 38.5565 39.5497 34.6232 41.5163C30.6898 43.483 28.0643 52.1658 27.2482 53.808M71.0163 73.5435C72.6536 76.0018 79.3747 77.9685 83.308 76.0018C87.2413 74.0352 89.8619 65.3523 90.683 63.7102M68.8333 51.625C76.2083 41.7917 68.8333 34.4167 56.5417 27.0417C48.9405 22.4839 66.375 19.6667 78.6667 29.5C87.8854 36.875 83.5833 41.7917 68.8333 56.5417V51.625ZM49.0929 65.8932C41.7179 75.7265 49.0929 83.1015 61.3846 90.4765C68.9857 95.0343 51.5512 97.8515 39.2596 88.0182C30.0408 80.6432 34.3429 75.7265 49.0929 60.9765V65.8932ZM51.8315 48.8913C41.9982 41.5163 34.6232 48.8913 27.2482 61.183C22.6855 68.7842 19.8732 51.3497 29.7065 39.058C37.0815 29.8393 41.9982 34.1413 56.7482 48.8913H51.8315ZM66.0997 68.6268C75.933 76.0018 83.308 68.6268 90.683 56.3352C95.2407 48.734 98.058 66.1685 88.2247 78.4602C80.8497 87.6838 75.933 83.3768 61.183 68.6268H66.0997Z" stroke="#086CB6" stroke-width="6.66667"/>
<path d="M17.2083 24.5833C18.1768 24.5833 19.1358 24.3926 20.0306 24.022C20.9254 23.6513 21.7384 23.1081 22.4232 22.4233C23.1081 21.7384 23.6513 20.9254 24.0219 20.0306C24.3926 19.1359 24.5833 18.1768 24.5833 17.2083C24.5833 16.2398 24.3926 15.2808 24.0219 14.3861C23.6513 13.4913 23.1081 12.6783 22.4232 11.9934C21.7384 11.3086 20.9254 10.7654 20.0306 10.3947C19.1358 10.0241 18.1768 9.83334 17.2083 9.83334C15.2524 9.83334 13.3765 10.6104 11.9934 11.9934C10.6103 13.3765 9.83333 15.2524 9.83333 17.2083C9.83333 19.1643 10.6103 21.0402 11.9934 22.4233C13.3765 23.8063 15.2524 24.5833 17.2083 24.5833ZM17.2083 108.167C19.1643 108.167 21.0402 107.39 22.4232 106.007C23.8063 104.624 24.5833 102.748 24.5833 100.792C24.5833 98.8357 23.8063 96.9598 22.4232 95.5768C21.0402 94.1937 19.1643 93.4167 17.2083 93.4167C15.2524 93.4167 13.3765 94.1937 11.9934 95.5768C10.6103 96.9598 9.83333 98.8357 9.83333 100.792C9.83333 102.748 10.6103 104.624 11.9934 106.007C13.3765 107.39 15.2524 108.167 17.2083 108.167ZM100.792 108.167C102.748 108.167 104.623 107.39 106.007 106.007C107.39 104.624 108.167 102.748 108.167 100.792C108.167 98.8357 107.39 96.9598 106.007 95.5768C104.623 94.1937 102.748 93.4167 100.792 93.4167C98.8357 93.4167 96.9598 94.1937 95.5768 95.5768C94.1937 96.9598 93.4167 98.8357 93.4167 100.792C93.4167 102.748 94.1937 104.624 95.5768 106.007C96.9598 107.39 98.8357 108.167 100.792 108.167ZM100.792 24.5833C101.76 24.5833 102.719 24.3926 103.614 24.022C104.509 23.6513 105.322 23.1081 106.007 22.4233C106.691 21.7384 107.235 20.9254 107.605 20.0306C107.976 19.1359 108.167 18.1768 108.167 17.2083C108.167 16.2398 107.976 15.2808 107.605 14.3861C107.235 13.4913 106.691 12.6783 106.007 11.9934C105.322 11.3086 104.509 10.7654 103.614 10.3947C102.719 10.0241 101.76 9.83334 100.792 9.83334C98.8357 9.83334 96.9598 10.6104 95.5768 11.9934C94.1937 13.3765 93.4167 15.2524 93.4167 17.2083C93.4167 19.1643 94.1937 21.0402 95.5768 22.4233C96.9598 23.8063 98.8357 24.5833 100.792 24.5833ZM59 68.8333C61.608 68.8333 64.1091 67.7973 65.9532 65.9532C67.7973 64.1091 68.8333 61.608 68.8333 59C68.8333 56.392 67.7973 53.8909 65.9532 52.0468C64.1091 50.2027 61.608 49.1667 59 49.1667C56.392 49.1667 53.8909 50.2027 52.0468 52.0468C50.2027 53.8909 49.1667 56.392 49.1667 59C49.1667 61.608 50.2027 64.1091 52.0468 65.9532C53.8909 67.7973 56.392 68.8333 59 68.8333Z" stroke="#086CB6" stroke-width="6.66667"/>
</g>
<defs>
<clipPath id="clip0_101_192">
<rect width="118" height="118" fill="white"/>
</clipPath>
</defs>
</svg>
