<svg width="162" height="143" viewBox="0 0 162 143" fill="none" xmlns="http://www.w3.org/2000/svg">
<g filter="url(#filter0_d_106_341)">
<path fill-rule="evenodd" clip-rule="evenodd" d="M50.625 41.7083V38.7292C50.625 31.618 53.8252 24.7982 59.5216 19.7699C65.2181 14.7415 72.944 11.9167 81 11.9167C89.056 11.9167 96.782 14.7415 102.478 19.7699C108.175 24.7982 111.375 31.618 111.375 38.7292V41.7083H128.25C131.976 41.7083 135 44.3836 135 47.7084V119.214C135 125.768 128.959 131.083 121.541 131.083H40.4595C36.8922 131.083 33.4707 129.833 30.947 127.608C28.4232 125.382 27.0036 122.363 27 119.214V47.7143C27 44.3896 30.0037 41.7083 33.75 41.7083H50.625ZM60.75 41.7083H101.25V38.7292C101.25 33.9884 99.1165 29.4418 95.3189 26.0896C91.5213 22.7374 86.3706 20.8542 81 20.8542C75.6294 20.8542 70.4787 22.7374 66.6811 26.0896C62.8835 29.4418 60.75 33.9884 60.75 38.7292V41.7083ZM50.625 41.7083V65.5417H60.75V41.7083H50.625ZM101.25 41.7083V65.5417H111.375V41.7083H101.25Z" fill="#086CB6"/>
</g>
<defs>
<filter id="filter0_d_106_341" x="-4" y="0" width="170" height="151" filterUnits="userSpaceOnUse" color-interpolation-filters="sRGB">
<feFlood flood-opacity="0" result="BackgroundImageFix"/>
<feColorMatrix in="SourceAlpha" type="matrix" values="0 0 0 0 0 0 0 0 0 0 0 0 0 0 0 0 0 0 127 0" result="hardAlpha"/>
<feOffset dy="4"/>
<feGaussianBlur stdDeviation="2"/>
<feComposite in2="hardAlpha" operator="out"/>
<feColorMatrix type="matrix" values="0 0 0 0 0 0 0 0 0 0 0 0 0 0 0 0 0 0 0.25 0"/>
<feBlend mode="normal" in2="BackgroundImageFix" result="effect1_dropShadow_106_341"/>
<feBlend mode="normal" in="SourceGraphic" in2="effect1_dropShadow_106_341" result="shape"/>
</filter>
</defs>
</svg>
