<svg width="112" height="112" viewBox="0 0 112 112" fill="none" xmlns="http://www.w3.org/2000/svg">
<path fill-rule="evenodd" clip-rule="evenodd" d="M51.4778 59.738L26.4365 12.6373C26.2926 12.3668 26.2034 12.0705 26.1741 11.7655C26.1447 11.4605 26.1757 11.1527 26.2653 10.8596C26.4462 10.2678 26.8549 9.77206 27.4013 9.48152C27.9477 9.19097 28.5872 9.1294 29.179 9.31034C29.4721 9.39993 29.7446 9.54637 29.9811 9.74128C30.2175 9.9362 30.4133 10.1758 30.5571 10.4464L55.6008 57.547L59.1521 55.657C60.2345 55.0816 61.4197 54.725 62.6399 54.6076C63.8601 54.4903 65.0915 54.6145 66.2637 54.9731C67.4359 55.3317 68.526 55.9177 69.4717 56.6976C70.4175 57.4776 71.2003 58.4362 71.7755 59.5187L73.2875 62.363L89.3175 85.8223L68.9288 96.6607L61.8658 82.7003L57.7031 84.8074L64.8081 98.854L56.0675 103.5L45.5791 77.091L44.0695 74.249C43.4939 73.1668 43.1372 71.9817 43.0197 70.7616C42.9022 69.5415 43.0262 68.3102 43.3845 67.138C43.7429 65.9658 44.3287 64.8756 45.1084 63.9298C45.8881 62.984 46.8465 62.2011 47.9288 61.6257L51.4778 59.738ZM61.3408 59.78L50.1175 65.7463C49.5763 66.034 49.0971 66.4255 48.7073 66.8984C48.3174 67.3713 48.0245 67.9164 47.8453 68.5025C47.6661 69.0886 47.6042 69.7043 47.6629 70.3143C47.7217 70.9244 47.9 71.5169 48.1878 72.058L49.6975 74.9L69.1645 64.5493L67.6525 61.7097C67.3648 61.1685 66.9733 60.6893 66.5004 60.2995C66.0275 59.9096 65.4824 59.6167 64.8963 59.4375C64.3102 59.2584 63.6946 59.1964 63.0845 59.2551C62.4744 59.3139 61.8819 59.4923 61.3408 59.78Z" fill="#086CB6"/>
<path d="M41.4586 82.5067C41.0628 82.0312 40.4943 81.7324 39.8782 81.676C39.2622 81.6196 38.6489 81.8101 38.1733 82.2057H38.1779L38.1523 82.2244L38.0076 82.3364C37.798 82.4932 37.584 82.6442 37.3659 82.789C36.7873 83.174 35.9239 83.699 34.8133 84.2264C31.9584 85.5985 28.834 86.3182 25.6666 86.3334C25.0477 86.3334 24.4543 86.5792 24.0167 87.0168C23.5791 87.4544 23.3333 88.0479 23.3333 88.6667C23.3333 89.2855 23.5791 89.879 24.0167 90.3166C24.4543 90.7542 25.0477 91 25.6666 91C29.5283 90.9851 33.3382 90.1108 36.8199 88.4404C37.9054 87.9249 38.9533 87.3339 39.9559 86.6717C40.3309 86.4206 40.6967 86.156 41.0526 85.8784L41.1226 85.8247L41.1459 85.806L41.1529 85.7967H41.1576L41.1599 85.792C41.635 85.3959 41.9334 84.8273 41.9894 84.2112C42.0454 83.5951 41.8545 82.982 41.4586 82.5067ZM46.2746 94.3717C46.4447 94.6266 46.5629 94.9126 46.6225 95.2132C46.6821 95.5138 46.6818 95.8232 46.6218 96.1237C46.5618 96.4243 46.4431 96.71 46.2727 96.9647C46.1022 97.2194 45.8832 97.438 45.6283 97.608L45.6236 97.6127L45.6143 97.6174L45.5909 97.6314L45.5186 97.678L45.2526 97.8484C43.856 98.7043 42.4047 99.4674 40.9079 100.133C38.1499 101.358 34.3023 102.667 30.3333 102.667C29.7144 102.667 29.1209 102.421 28.6833 101.983C28.2458 101.546 27.9999 100.952 27.9999 100.333C27.9999 99.7145 28.2458 99.121 28.6833 98.6834C29.1209 98.2459 29.7144 98 30.3333 98C33.3619 98 36.5166 96.9757 39.0109 95.8674C40.3112 95.2892 41.5723 94.6267 42.7863 93.884C42.878 93.8296 42.9449 93.7876 42.9869 93.758L43.0336 93.73L43.0382 93.7254C43.2932 93.5553 43.5791 93.4371 43.8797 93.3775C44.1804 93.3179 44.4898 93.3181 44.7903 93.3781C45.0908 93.4382 45.3766 93.5568 45.6313 93.7273C45.886 93.8978 46.1045 94.1167 46.2746 94.3717Z" fill="#086CB6"/>
</svg>
