<svg width="80" height="80" viewBox="0 0 80 80" fill="none" xmlns="http://www.w3.org/2000/svg">
<path d="M68.6667 70L53.0001 54.3333C50.7223 56.1111 48.209 57.5 45.4601 58.5C42.7112 59.5 39.7801 60 36.6667 60C31.6667 60 27.1534 58.7777 23.1267 56.3333C19.1001 53.8888 15.919 50.6666 13.5834 46.6666H21.7501C23.639 48.7222 25.8479 50.3477 28.3767 51.5433C30.9056 52.7388 33.669 53.3355 36.6667 53.3333C42.2223 53.3333 46.9445 51.3888 50.8334 47.5C54.7223 43.6111 56.6667 38.8888 56.6667 33.3333C56.6667 27.7777 54.7223 23.0555 50.8334 19.1666C46.9445 15.2777 42.2223 13.3333 36.6667 13.3333C31.4445 13.3333 26.9312 15.0977 23.1267 18.6266C19.3223 22.1555 17.1967 26.5022 16.7501 31.6666H10.0834C10.5279 24.6111 13.2923 18.6811 18.3767 13.8766C23.4612 9.07218 29.5579 6.66885 36.6667 6.66663C44.1112 6.66663 50.4167 9.24996 55.5834 14.4166C60.7501 19.5833 63.3334 25.8888 63.3334 33.3333C63.3334 36.4444 62.8334 39.3755 61.8334 42.1266C60.8334 44.8777 59.4445 47.3911 57.6667 49.6666L73.3334 65.3333L68.6667 70ZM33.0834 46.6666L27.8334 29.3333L23.5001 41.6666H6.66675V36.6666H20.0001L25.5001 20.8333H30.5001L35.5834 37.8333L39.1667 26.6666H44.1667L49.1667 36.6666H51.6667V41.6666H46.0834L42.1667 33.8333L38.0001 46.6666H33.0834Z" fill="#086CB6"/>
</svg>
