<svg width="80" height="80" viewBox="0 0 80 80" fill="none" xmlns="http://www.w3.org/2000/svg">
<path d="M72.6532 67.3469L57.8126 52.5C62.2623 46.7015 64.3397 39.4275 63.6235 32.1536C62.9073 24.8797 59.451 18.1505 53.9558 13.3312C48.4607 8.5119 41.3381 5.96329 34.0329 6.20237C26.7277 6.44145 19.787 9.45033 14.6187 14.6186C9.45039 19.7869 6.44151 26.7276 6.20243 34.0328C5.96335 41.338 8.51196 48.4606 13.3313 53.9558C18.1506 59.4509 24.8797 62.9072 32.1536 63.6234C39.4275 64.3396 46.7015 62.2622 52.5001 57.8125L67.3532 72.6687C67.702 73.0176 68.1161 73.2943 68.5719 73.4831C69.0276 73.6718 69.5161 73.769 70.0094 73.769C70.5027 73.769 70.9912 73.6718 71.447 73.4831C71.9027 73.2943 72.3169 73.0176 72.6657 72.6687C73.0145 72.3199 73.2912 71.9058 73.48 71.4501C73.6688 70.9943 73.7659 70.5058 73.7659 70.0125C73.7659 69.5192 73.6688 69.0307 73.48 68.5749C73.2912 68.1192 73.0145 67.7051 72.6657 67.3562L72.6532 67.3469ZM13.7501 35C13.7501 30.7971 14.9964 26.6887 17.3313 23.1941C19.6663 19.6996 22.9851 16.9759 26.868 15.3676C30.751 13.7592 35.0236 13.3384 39.1457 14.1583C43.2678 14.9782 47.0542 17.0021 50.0261 19.974C52.9979 22.9458 55.0218 26.7322 55.8417 30.8543C56.6617 34.9764 56.2409 39.2491 54.6325 43.132C53.0241 47.015 50.3005 50.3337 46.8059 52.6687C43.3114 55.0037 39.2029 56.25 35.0001 56.25C29.366 56.2442 23.9643 54.0035 19.9804 50.0196C15.9965 46.0357 13.7559 40.6341 13.7501 35Z" fill="#086CB6"/>
</svg>
