<svg width="156" height="59" viewBox="0 0 156 59" fill="none" xmlns="http://www.w3.org/2000/svg">
<path d="M68.9649 29.7634C68.3643 29.7634 67.7771 29.9415 67.2776 30.2753C66.7782 30.609 66.3889 31.0833 66.159 31.6383C65.9292 32.1932 65.869 32.8039 65.9862 33.393C66.1034 33.9821 66.3926 34.5233 66.8174 34.948C67.2421 35.3728 67.7833 35.662 68.3724 35.7792C68.9616 35.8964 69.5722 35.8363 70.1272 35.6064C70.6821 35.3765 71.1565 34.9873 71.4902 34.4878C71.8239 33.9884 72.002 33.4012 72.002 32.8005V32.6363H69.7858V32.9565H71.6409C71.5834 33.6271 71.2768 34.2519 70.7815 34.7078C70.2862 35.1636 69.6381 35.4173 68.9649 35.419C68.2567 35.4168 67.5781 35.1339 67.0781 34.6323C66.578 34.1307 66.2972 33.4513 66.2972 32.743C66.2951 32.3917 66.3625 32.0434 66.4957 31.7183C66.6289 31.3932 66.8252 31.0978 67.0732 30.849C67.3213 30.6001 67.6162 30.403 67.9409 30.2688C68.2656 30.1346 68.6136 30.066 68.9649 30.0671H69.1866V29.7142L68.9649 29.7634ZM67.8322 32.1356C67.9251 32.1356 68.0159 32.108 68.093 32.0562C68.1701 32.0044 68.23 31.9308 68.2652 31.8448C68.3003 31.7589 68.3091 31.6644 68.2904 31.5734C68.2717 31.4824 68.2263 31.3991 68.16 31.334C68.0938 31.2689 68.0096 31.225 67.9183 31.2079C67.827 31.1908 67.7327 31.2012 67.6474 31.2379C67.562 31.2746 67.4896 31.3358 67.4391 31.4138C67.3887 31.4918 67.3627 31.5831 67.3643 31.676C67.3643 31.737 67.3765 31.7975 67.4001 31.8538C67.4237 31.9101 67.4583 31.9611 67.5018 32.0039C67.5454 32.0467 67.597 32.0804 67.6538 32.103C67.7105 32.1256 67.7711 32.1367 67.8322 32.1356ZM69.1537 31.1917H68.7926V34.4011H69.8596V34.0482H69.1537V31.1917ZM154.652 4.85933C154.097 4.23895 153.372 3.7963 152.567 3.58704C151.968 3.50056 151.417 3.21072 151.007 2.76621C150.339 2.09961 149.595 1.51289 148.791 1.01783L147.355 0.123125L77.8135 0.0410417L8.26431 0L6.56519 1.37079C5.1999 2.54335 3.61901 3.43835 1.91106 4.00567C1.25238 4.31422 0.727573 4.85069 0.433564 5.516C-0.213063 19.4648 -0.136349 33.4377 0.663398 47.3785C1.56631 55.4555 1.56631 55.4719 8.0509 55.6607C11.2521 55.7592 11.6461 55.8577 11.7939 56.6129C12.1551 58.5993 9.64331 58.5172 66.9211 58.4598C96.6845 58.4598 126.07 58.2874 132.227 58.1478L143.415 57.8852L143.973 56.7196C144.523 55.5704 144.572 55.5622 148.643 55.5622C150.277 55.7087 151.924 55.5273 153.486 55.0287C154.182 54.128 154.665 53.0812 154.898 51.967C155.822 43.9445 156.111 35.8614 155.76 27.7934L155.957 6.14804L154.652 4.85933ZM137.053 1.576C137.989 1.576 138.416 1.65808 138.013 1.76479C137.454 1.86395 136.882 1.86395 136.323 1.76479C135.797 1.68271 136.126 1.60063 137.045 1.58421L137.053 1.576ZM141.642 2.52817C142.003 1.60063 146.181 1.70733 147.757 2.63488L148.972 3.37363L145.122 3.47213C133.285 3.79225 117.107 3.84971 119.101 3.57063C120.382 3.39004 125.923 3.22588 131.414 3.20125C139.877 3.17663 141.436 3.06992 141.642 2.53638V2.52817ZM142.233 20.1022L143.39 19.2403H141.912C140.804 19.2403 140.591 19.1172 141.092 18.8135C141.447 18.5378 141.888 18.3952 142.338 18.4102C142.787 18.4251 143.218 18.5969 143.554 18.8956C144.285 19.6343 144.186 19.9955 142.938 21.1529L141.822 22.1953H142.791C143.505 22.1953 143.653 22.3185 143.316 22.655C142.979 22.9915 142.61 22.9833 141.97 22.655C140.739 21.9737 140.837 21.1529 142.233 20.1104V20.1022ZM139.77 34.8772C138.678 34.7705 138.079 34.5078 138.079 34.1302C138.079 33.4325 139.475 33.3505 140.64 33.9743C141.97 34.7213 141.625 35.0906 139.803 34.9183L139.77 34.8772ZM148.602 34.2205C148.972 34.5653 148.331 34.7623 146.14 34.9757C143.948 35.1891 142.306 34.7623 142.306 34.04C144.415 33.7987 146.548 33.8734 148.635 34.2616L148.602 34.2205ZM145.647 19.1747C145.836 18.1568 145.852 18.165 146.238 19.4702C146.457 20.2965 146.477 21.1629 146.296 21.9983L145.959 23.1885L145.705 21.711C145.579 20.8845 145.571 20.0445 145.68 19.2157L145.647 19.1747ZM121.186 1.93717L129.846 1.99463L121.827 2.31475C118.97 2.55173 116.098 2.55173 113.241 2.31475C115.876 1.87049 118.556 1.76018 121.219 1.98642L121.186 1.93717ZM102.176 1.61704C106.937 1.61704 108.89 1.6745 106.51 1.75658C104.129 1.83867 100.23 1.83046 97.8501 1.75658C95.4697 1.68271 97.4479 1.65808 102.209 1.65808L102.176 1.61704ZM90.1096 1.81404C91.4804 1.81404 92.49 1.97 92.3587 2.10133C91.9975 2.47071 63.7444 2.56921 63.7444 2.19983C72.5239 1.50416 81.3396 1.389 90.1342 1.85508L90.1096 1.81404ZM44.7339 1.86329C45.7764 1.69913 49.7739 1.56779 53.6071 1.576H60.5842L55.5033 1.8715C48.6493 2.31475 42.1811 2.30654 44.7668 1.90433L44.7339 1.86329ZM37.3464 1.86329C38.7002 1.79659 40.0562 1.93496 41.3685 2.27371C41.8036 2.561 40.9581 2.68412 38.6187 2.68412C37.265 2.7502 35.9091 2.61184 34.5966 2.27371C34.1862 2.04387 35.0317 1.91254 37.3629 1.91254L37.3464 1.86329ZM24.2131 1.93717C28.3173 1.93717 29.2202 2.04387 27.8084 2.29833C25.0914 2.75617 22.317 2.75617 19.6 2.29833C19.1075 2.10133 20.8641 1.97 24.2788 1.98642L24.2131 1.93717ZM9.60227 1.81404C11.6096 1.78224 13.6119 2.02528 15.5533 2.53638C14.4779 2.7673 13.3745 2.83921 12.2782 2.74979C11.114 2.8727 9.93709 2.73819 8.83069 2.35579C8.86352 2.14237 9.20006 1.89613 9.60227 1.81404ZM1.64019 6.44354C2.41177 4.334 3.5281 4.26013 38.0031 3.98104C73.381 3.71837 113.52 3.98104 114.39 4.40788C111.4 4.83378 108.381 5.02589 105.361 4.98246C91.6528 5.38467 87.762 5.34363 88.1232 4.81829C85.1637 4.31573 82.1466 4.24936 79.1679 4.62129C74.0541 4.75262 55.0929 4.94963 36.9606 5.05633C3.51169 5.26154 2.12448 5.33542 2.12448 6.81292C2.12448 7.12483 1.93569 7.3875 1.71406 7.3875C1.49244 7.3875 1.38573 7.00992 1.57452 6.44354H1.64019ZM79.9067 34.0892C80.3171 34.0892 80.5551 33.8676 80.6536 33.3505H79.8328V32.4557H81.8028V34.9183H80.7357V34.5078C80.6067 34.6891 80.4332 34.8342 80.232 34.9291C80.0307 35.0239 79.8085 35.0654 79.5865 35.0496C78.4784 35.0496 77.7561 34.1713 77.7561 32.8005C77.7254 32.5061 77.7595 32.2086 77.8561 31.9288C77.9527 31.649 78.1093 31.3938 78.3151 31.181C78.5208 30.9682 78.7706 30.803 79.047 30.6971C79.3234 30.5912 79.6196 30.5471 79.9149 30.5678C80.3967 30.5511 80.8705 30.6955 81.261 30.9783C81.4335 31.1104 81.5729 31.2807 81.6683 31.4758C81.7637 31.671 81.8126 31.8856 81.811 32.1028H80.4977C80.4871 31.9496 80.4165 31.8068 80.3012 31.7053C80.186 31.6039 80.0353 31.552 79.882 31.561C79.3731 31.561 79.0612 32.0371 79.0612 32.8169C79.0612 33.5967 79.3895 34.0892 79.9067 34.0892ZM77.4442 33.8758V34.9429H74.3332V30.6745H75.5973V33.8758H77.4442ZM72.5191 32.8087C72.5191 33.5165 72.3093 34.2085 71.916 34.797C71.5228 35.3855 70.9638 35.8442 70.3099 36.1151C69.6559 36.386 68.9363 36.4569 68.2421 36.3188C67.5479 36.1807 66.9102 35.8398 66.4097 35.3393C65.9092 34.8388 65.5683 34.2011 65.4303 33.5069C65.2922 32.8127 65.363 32.0931 65.6339 31.4392C65.9048 30.7852 66.3635 30.2263 66.952 29.833C67.5406 29.4398 68.2325 29.2299 68.9403 29.2299C69.4124 29.2266 69.8804 29.3168 70.3174 29.4952C70.7545 29.6736 71.1519 29.9367 71.4869 30.2693C71.8218 30.602 72.0876 30.9976 72.269 31.4334C72.4504 31.8693 72.5438 32.3367 72.5438 32.8087H72.5191ZM7.35319 40.4999C10.144 40.4999 11.3342 40.5656 10.0127 40.6477C8.69115 40.7298 6.40102 40.7298 4.93994 40.6477C3.47886 40.5656 4.59519 40.4999 7.35319 40.4999ZM8.42027 50.473C8.22279 50.4839 8.02529 50.4521 7.84117 50.3799C7.65706 50.3076 7.49063 50.1966 7.35319 50.0544C7.19723 49.8082 7.64048 49.6276 8.42027 49.6276C9.20006 49.6276 9.61869 49.8082 9.46273 50.0544C9.3308 50.1897 9.17219 50.296 8.99696 50.3666C8.82174 50.4373 8.63374 50.4707 8.4449 50.4648L8.42027 50.473ZM10.9649 49.406C10.7161 48.1233 10.5788 46.8215 10.5544 45.5152V43.299H8.74861C7.85242 43.2756 6.9657 43.1094 6.12194 42.8065C5.54736 42.5356 6.12194 42.4781 8.01806 42.6587C8.98407 42.7096 9.94464 42.8358 10.891 43.0363C11.0746 44.3971 11.1788 45.7675 11.2029 47.1405C11.3342 50.194 11.285 50.7111 10.9895 49.4142L10.9649 49.406ZM1.93569 38.6448C1.385 33.4107 1.22038 28.1431 1.44319 22.8848V7.59271L1.72227 22.5893C1.87002 30.8387 2.02598 37.6352 2.06702 37.6927C2.10806 37.7501 34.9742 37.824 75.1212 37.8568C124.1 37.8568 147.355 38.0456 145.762 38.3247C142.298 38.9321 2.52669 39.2276 1.92748 38.6366L1.93569 38.6448ZM144.892 50.2596C144.482 51.9013 144.465 51.9013 144.662 49.6276C144.769 48.3553 144.908 46.3442 144.949 45.1951C145.032 43.3236 145.048 43.3893 145.179 45.8271C145.264 47.3108 145.167 48.7992 144.892 50.2596ZM147.108 50.1119C146.821 49.9477 147.822 49.8246 149.325 49.8328C150.246 49.7355 151.178 49.8477 152.05 50.1611C152.05 50.7111 148.118 50.67 147.1 50.1119H147.108ZM148.75 46.254C149.981 45.7615 149.842 45.7615 150.777 46.254C151.229 46.5002 151.598 46.8778 151.598 47.0748C151.598 47.7561 149.874 48.4292 148.807 48.1665C147.56 47.8546 147.527 46.7629 148.775 46.2622L148.75 46.254ZM148.422 40.6395C144.268 40.6395 143.554 40.5492 145.475 40.3358C147.85 39.9418 150.274 39.9418 152.649 40.3358C153.462 40.5327 151.771 40.6559 148.463 40.6395" fill="#086CB6"/>
</svg>
