<?xml version="1.0" encoding="UTF-8" standalone="no"?>
<!-- Created with Inkscape (http://www.inkscape.org/) -->

<svg
   xmlns:dc="http://purl.org/dc/elements/1.1/"
   xmlns:cc="http://creativecommons.org/ns#"
   xmlns:rdf="http://www.w3.org/1999/02/22-rdf-syntax-ns#"
   xmlns:svg="http://www.w3.org/2000/svg"
   xmlns="http://www.w3.org/2000/svg"
   xmlns:sodipodi="http://sodipodi.sourceforge.net/DTD/sodipodi-0.dtd"
   xmlns:inkscape="http://www.inkscape.org/namespaces/inkscape"
   width="943.05914"
   height="701.93445"
   viewBox="0 0 249.51772 185.72015"
   version="1.1"
   id="svg8"
   inkscape:version="0.92.4 (5da689c313, 2019-01-14)"
   sodipodi:docname="Grup_Tempo.svg">
  <defs
     id="defs2" />
  <sodipodi:namedview
     id="base"
     pagecolor="#ffffff"
     bordercolor="#666666"
     borderopacity="1.0"
     inkscape:pageopacity="0.0"
     inkscape:pageshadow="2"
     inkscape:zoom="0.175"
     inkscape:cx="489.54623"
     inkscape:cy="598.45922"
     inkscape:document-units="mm"
     inkscape:current-layer="g993"
     showgrid="false"
     showguides="false"
     inkscape:guide-bbox="true"
     inkscape:window-width="1366"
     inkscape:window-height="745"
     inkscape:window-x="-8"
     inkscape:window-y="-8"
     inkscape:window-maximized="1"
     fit-margin-top="0"
     fit-margin-left="0"
     fit-margin-right="0"
     fit-margin-bottom="0"
     units="px">
    <sodipodi:guide
       position="240.16867,153.04812"
       orientation="1,0"
       id="guide840"
       inkscape:locked="false" />
    <sodipodi:guide
       position="246.11541,137.72788"
       orientation="0,1"
       id="guide844"
       inkscape:locked="false" />
    <sodipodi:guide
       position="245.98178,138.98306"
       orientation="1,0"
       id="guide846"
       inkscape:locked="false" />
    <sodipodi:guide
       position="240.16867,153.04812"
       orientation="0,1"
       id="guide848"
       inkscape:locked="false" />
    <sodipodi:guide
       position="228.14154,67.424322"
       orientation="0,1"
       id="guide850"
       inkscape:locked="false" />
    <sodipodi:guide
       position="228.3754,175.89966"
       orientation="1,0"
       id="guide854"
       inkscape:locked="false" />
    <sodipodi:guide
       position="234.68964,153.04813"
       orientation="1,0"
       id="guide858"
       inkscape:locked="false" />
    <sodipodi:guide
       position="234.68964,163.80573"
       orientation="0,1"
       id="guide860"
       inkscape:locked="false" />
    <sodipodi:guide
       position="228.47563,177.97101"
       orientation="0,1"
       id="guide862"
       inkscape:locked="false" />
    <sodipodi:guide
       position="232.34561,199.95221"
       orientation="0,1"
       id="guide868"
       inkscape:locked="false" />
    <sodipodi:guide
       position="246.11541,187.99362"
       orientation="0,1"
       id="guide870"
       inkscape:locked="false" />
    <sodipodi:guide
       position="221.66778,67.518812"
       orientation="1,0"
       id="guide872"
       inkscape:locked="false" />
    <sodipodi:guide
       position="216.18713,196.73941"
       orientation="1,0"
       id="guide876"
       inkscape:locked="false" />
  </sodipodi:namedview>
  <metadata
     id="metadata5">
    <rdf:RDF>
      <cc:Work
         rdf:about="">
        <dc:format>image/svg+xml</dc:format>
        <dc:type
           rdf:resource="http://purl.org/dc/dcmitype/StillImage" />
        <dc:title></dc:title>
      </cc:Work>
    </rdf:RDF>
  </metadata>
  <g
     inkscape:label="Layer 1"
     inkscape:groupmode="layer"
     id="layer1"
     transform="translate(219.58894,12.362786)">
    <g
       aria-label="GRUP TEMPO"
       style="font-style:normal;font-variant:normal;font-weight:bold;font-stretch:normal;font-size:68.42648315px;line-height:1.25;font-family:Futura;-inkscape-font-specification:'Futura Bold';letter-spacing:0.38133514px;word-spacing:0px;fill:#000000;fill-opacity:1;stroke:none;stroke-width:0.35638794"
       id="text931"
       transform="matrix(0.83188388,0,0,0.83188388,106.33154,34.613921)">
      <g
         style="font-style:normal;font-variant:normal;font-weight:bold;font-stretch:normal;font-size:68.42648315px;line-height:1.25;font-family:Futura;-inkscape-font-specification:'Futura Bold';letter-spacing:0.38133514px;word-spacing:0px;fill:#000000;fill-opacity:1;stroke:none;stroke-width:0.35638794"
         id="g993"
         transform="matrix(0.90578289,0,0,0.94079353,-354.65988,358.55716)">
        <path
           inkscape:connector-curvature="0"
           id="path933"
           style="font-style:normal;font-variant:normal;font-weight:normal;font-stretch:normal;font-family:'Bodoni MT';-inkscape-font-specification:'Bodoni MT';letter-spacing:-3.69574332px;fill:#d4aa00;stroke-width:0.27907294"
           d="m -18.749284,-216.40208 h -5.939022 v -1.33433 h 18.1571797 v 1.33433 h -5.0756377 q 0,6.72391 -4.316908,9.65417 -4.316909,2.9041 -9.026264,2.9041 -6.880893,0 -11.459434,-5.49423 -4.578535,-5.49426 -4.578535,-12.84609 0,-7.45649 4.683189,-12.89841 4.683192,-5.46808 11.668736,-5.46808 3.610506,0 6.907056,2.09305 0.994197,0.62792 1.386643,0.62792 0.83722,0 1.674437,-1.4913 h 1.177339 l 0.366283,9.52337 h -1.334317 q -2.171536,-9.41872 -10.282093,-9.41872 -4.212257,0 -6.148325,1.90991 -1.936069,1.88374 -2.380842,4.78784 -0.418609,2.87793 -0.418609,8.24137 0,9.65418 0.627915,12.79375 0.654076,3.13958 2.642471,4.73552 1.988395,1.56977 4.866335,1.56977 2.302351,0 4.081441,-0.94185 1.805254,-0.94188 2.250025,-2.79945 0.470937,-1.88375 0.470937,-5.59891 z" />
        <path
           id="path935"
           style="font-style:normal;font-variant:normal;font-weight:normal;font-stretch:normal;font-family:'Bodoni MT';-inkscape-font-specification:'Bodoni MT';letter-spacing:-3.69574332px;fill:#d4aa00;stroke-width:0.27907294"
           d="m -2.3961749,-205.98919 v -32.41604 h -5.5204124 v -1.33432 H 11.313284 q 3.767485,0 6.174489,0.65406 2.433167,0.65408 4.186094,2.72096 1.752927,2.04073 1.752927,4.70936 0,3.32271 -2.563983,5.3896 -2.563983,2.06689 -8.686145,3.1134 v 0.13081 q 4.395399,0.8634 7.194849,3.34889 2.825614,2.48549 2.825614,8.42452 0,3.40119 0.784892,4.36921 0.811056,0.94189 2.223863,0.94189 0.915708,0 2.1977,-0.36629 v 1.282 q -2.276189,0.78489 -4.3954,0.78489 -4.316909,0 -6.095999,-2.407 -1.77909,-2.407 -1.726764,-4.70936 l 0.104653,-4.44773 q 0,-2.32851 -1.491296,-4.57853 -1.465133,-2.27619 -6.6977525,-2.27619 H 3.8306384 v 16.66587 h 5.5204131 v 1.33432 H -7.9165873 v -1.33432 z m 6.2268133,-32.41604 v 14.5205 h 4.7093571 q 3.0349205,0 4.6308685,-0.39245 1.595948,-0.41861 2.537819,-2.11921 0.968034,-1.72677 0.968034,-5.46809 0,-3.06107 -0.968034,-4.47388 -0.968034,-1.41281 -2.354678,-1.72677 -1.360481,-0.3401 -3.5843435,-0.3401 z"
           inkscape:connector-curvature="0" />
        <path
           id="path937"
           style="font-style:normal;font-variant:normal;font-weight:normal;font-stretch:normal;font-family:'Bodoni MT';-inkscape-font-specification:'Bodoni MT';letter-spacing:-3.69574332px;fill:#d4aa00;stroke-width:0.27907294"
           d="m 56.851991,-238.40523 h -5.729716 v -1.33432 h 12.532119 v 1.33432 h -5.520411 v 21.21825 q 0,4.60471 -0.706403,6.80239 -0.680241,2.19771 -2.511657,3.68899 -1.831416,1.49131 -4.395399,2.17156 -2.53782,0.68023 -5.25878,0.68023 -5.75588,0 -8.424514,-1.80524 -2.668636,-1.80526 -3.296549,-4.44774 -0.601751,-2.64245 -0.601751,-7.09019 v -21.21825 h -5.075638 v -1.33432 h 16.770537 v 1.33432 h -5.520411 v 20.61649 q 0,4.26459 0.392446,6.69775 0.392448,2.43317 2.119211,4.05529 1.726763,1.62212 5.468085,1.62212 3.034918,0 5.441923,-1.22967 2.407003,-1.25584 3.348875,-3.34889 0.968033,-2.09305 0.968033,-7.7966 z"
           inkscape:connector-curvature="0" />
        <path
           id="path939"
           style="font-style:normal;font-variant:normal;font-weight:normal;font-stretch:normal;font-family:'Bodoni MT';-inkscape-font-specification:'Bodoni MT';letter-spacing:-3.69574332px;fill:#d4aa00;stroke-width:0.27907294"
           d="m 77.073097,-220.719 v 14.72981 h 5.677389 v 1.33432 H 65.273543 v -1.33432 h 5.572738 v -32.41604 h -5.572738 v -1.33432 h 18.078694 q 6.122162,0 9.209406,2.72096 3.113408,2.72096 3.113408,6.69774 0,4.08143 -3.139571,6.85474 -3.113406,2.74711 -10.386745,2.74711 z m 0,-17.68623 v 16.32576 h 3.375036 q 2.642474,0 4.3954,-0.44478 1.752926,-0.44477 3.008755,-2.35468 1.281991,-1.90991 1.281991,-5.91285 0,-3.53202 -1.125013,-5.18031 -1.098849,-1.67443 -2.616309,-2.04069 -1.517458,-0.39245 -3.767483,-0.39245 z"
           inkscape:connector-curvature="0" />
        <path
           id="path941"
           style="font-style:normal;font-variant:normal;font-weight:normal;font-stretch:normal;font-family:'Bodoni MT';-inkscape-font-specification:'Bodoni MT';letter-spacing:-3.69574332px;fill:#d4aa00;stroke-width:0.27907294"
           d="m 111.42278,-239.73955 h 29.90439 l 0.9157,11.93036 h -1.3343 q -1.22967,-5.99134 -3.2704,-8.2937 -2.01455,-2.30234 -5.3111,-2.30234 h -2.85177 v 32.41604 h 6.27914 v 1.33432 H 116.9955 v -1.33432 h 6.27914 v -32.41604 h -2.85178 q -3.29653,0 -5.33725,2.30234 -2.01457,2.30236 -3.24422,8.2937 h -1.33432 z"
           inkscape:connector-curvature="0" />
        <path
           id="path943"
           style="font-style:normal;font-variant:normal;font-weight:normal;font-stretch:normal;font-family:'Bodoni MT';-inkscape-font-specification:'Bodoni MT';letter-spacing:-3.69574332px;fill:#d4aa00;stroke-width:0.27907294"
           d="m 156.89607,-238.40523 v 15.04376 h 3.16572 q 1.67445,0 2.82561,-0.31394 1.17734,-0.34014 2.09305,-1.77911 0.94188,-1.43896 1.0727,-4.50005 h 1.36048 v 14.86063 h -1.36048 q -0.20931,-4.23843 -1.64829,-5.57273 -1.41281,-1.36049 -4.34307,-1.36049 h -3.16572 v 16.03797 h 7.14252 q 6.06983,0 8.39835,-2.5378 2.35467,-2.564 2.79944,-7.87509 h 1.33433 l -0.34013,11.74721 h -31.10792 v -1.33432 h 5.57275 v -32.41604 h -5.57275 v -1.33432 h 29.82594 l 0.60174,9.36637 h -1.33432 q -0.68024,-4.26458 -2.79944,-6.14832 -2.11922,-1.88373 -7.06404,-1.88373 z"
           inkscape:connector-curvature="0" />
        <path
           id="path945"
           style="font-style:normal;font-variant:normal;font-weight:normal;font-stretch:normal;font-family:'Bodoni MT';-inkscape-font-specification:'Bodoni MT';letter-spacing:-3.69574332px;fill:#d4aa00;stroke-width:0.27907294"
           d="m 180.54935,-239.73955 h 12.58444 l 7.5088,24.8026 h 0.10466 l 7.56113,-24.8026 h 12.27048 v 1.33432 h -5.20646 v 32.41604 h 5.20646 v 1.33432 h -16.50891 v -1.33432 h 5.36345 v -33.0178 h -0.10466 l -10.43907,34.35212 h -1.2035 l -10.43908,-34.35212 h -0.10466 v 33.0178 h 5.36343 v 1.33432 h -11.95651 v -1.33432 h 5.25876 v -32.41604 h -5.25876 z"
           inkscape:connector-curvature="0" />
        <path
           id="path947"
           style="font-style:normal;font-variant:normal;font-weight:normal;font-stretch:normal;font-family:'Bodoni MT';-inkscape-font-specification:'Bodoni MT';letter-spacing:-3.69574332px;fill:#d4aa00;stroke-width:0.27907294"
           d="m 234.92634,-220.719 v 14.72981 h 5.6774 v 1.33432 H 223.1268 v -1.33432 h 5.57273 v -32.41604 h -5.57273 v -1.33432 h 18.07868 q 6.12216,0 9.20942,2.72096 3.11341,2.72096 3.11341,6.69774 0,4.08143 -3.13958,6.85474 -3.1134,2.74711 -10.38674,2.74711 z m 0,-17.68623 v 16.32576 h 3.37504 q 2.64247,0 4.39541,-0.44478 1.75291,-0.44477 3.00876,-2.35468 1.28198,-1.90991 1.28198,-5.91285 0,-3.53202 -1.12502,-5.18031 -1.09884,-1.67443 -2.6163,-2.04069 -1.51747,-0.39245 -3.76748,-0.39245 z"
           inkscape:connector-curvature="0" />
        <path
           id="path949"
           style="font-style:normal;font-variant:normal;font-weight:normal;font-stretch:normal;font-family:'Bodoni MT';-inkscape-font-specification:'Bodoni MT';letter-spacing:-3.69574332px;fill:#d4aa00;stroke-width:0.27907294"
           d="m 273.85474,-203.84381 q -6.80241,0 -11.56409,-5.70355 -4.73552,-5.70354 -4.73552,-12.192 0,-7.7966 4.97099,-13.29085 4.99715,-5.52041 11.59025,-5.52041 6.20064,0 11.11931,5.59891 4.91866,5.59889 4.91866,12.71525 0,7.32566 -4.94483,12.87224 -4.91866,5.52041 -11.35477,5.52041 z m 0.10464,-35.37249 q -2.87793,0 -5.18029,1.33431 -2.27618,1.30816 -3.1134,4.57855 -0.81106,3.27038 -0.81106,11.40711 0,5.62506 0.47095,8.97393 0.47093,3.34887 2.38083,5.54658 1.93607,2.19768 6.04368,2.19768 2.51166,0 5.02331,-1.3343 2.53781,-1.33432 3.29655,-5.23261 0.78489,-3.92448 0.78489,-12.03502 0,-7.35183 -0.96803,-10.15129 -0.94188,-2.79945 -3.06109,-4.02911 -2.09305,-1.25583 -4.86634,-1.25583 z"
           inkscape:connector-curvature="0" />
      </g>
      <path
         sodipodi:nodetypes="ccccccc"
         inkscape:connector-curvature="0"
         id="path972"
         d="M -207.79629,-0.08729315 -207.67582,102.8403 h 6.86742 V 18.329027 h 38.94901 l 12.53646,-18.41632015 z"
         style="fill:#d4aa00;fill-opacity:0.97647059;stroke:none;stroke-width:0.31805319px;stroke-linecap:butt;stroke-linejoin:miter;stroke-opacity:1" />
      <path
         sodipodi:nodetypes="ccccccc"
         style="fill:#d4aa00;fill-opacity:0.97647059;stroke:none;stroke-width:0.31805319px;stroke-linecap:butt;stroke-linejoin:miter;stroke-opacity:1"
         d="m -222.00658,-29.984295 0.12048,132.824595 h 7.50352 V -13.018917 h 39.10804 l 13.11577,-17.027954 z"
         id="path974"
         inkscape:connector-curvature="0" />
      <path
         inkscape:connector-curvature="0"
         id="path976"
         d="m -236.62428,102.8403 h 6.58824 V -42.094959 h 39.91027 l 13.49385,-14.375311 h -59.99236 z"
         style="fill:#d4aa00;fill-opacity:0.97647059;stroke:none;stroke-width:0.31805319px;stroke-linecap:butt;stroke-linejoin:miter;stroke-opacity:1" />
      <path
         style="fill:#d4aa00;fill-opacity:0.97647059;stroke:none;stroke-width:0.31805319px;stroke-linecap:butt;stroke-linejoin:miter;stroke-opacity:1"
         d="M -271.81334,-0.08729315 -271.93383,102.8403 h -6.8674 V 18.329027 h -38.94901 l -12.53647,-18.41632015 z"
         id="path978"
         inkscape:connector-curvature="0"
         sodipodi:nodetypes="ccccccc" />
      <path
         inkscape:connector-curvature="0"
         id="path980"
         d="m -257.60306,-29.984295 -0.12048,132.824595 h -7.50352 V -13.018917 h -39.10803 l -13.11579,-17.027954 z"
         style="fill:#d4aa00;fill-opacity:0.97647059;stroke:none;stroke-width:0.31805319px;stroke-linecap:butt;stroke-linejoin:miter;stroke-opacity:1"
         sodipodi:nodetypes="ccccccc" />
      <path
         style="fill:#d4aa00;fill-opacity:0.97647059;stroke:none;stroke-width:0.31805319px;stroke-linecap:butt;stroke-linejoin:miter;stroke-opacity:1"
         d="m -242.98535,102.8403 h -6.58825 V -42.094959 h -39.91027 l -13.49384,-14.375311 h 59.99236 z"
         id="path982"
         inkscape:connector-curvature="0" />
    </g>
  </g>
</svg>
