<svg width="611" height="574" viewBox="0 0 611 574" fill="none" xmlns="http://www.w3.org/2000/svg">
<g clip-path="url(#clip0_204_130)">
<path fill-rule="evenodd" clip-rule="evenodd" d="M105.871 45.4576H501.495C528.241 45.4576 550.53 67.7397 550.53 94.4782V491.099C550.53 517.837 528.241 540.119 501.495 540.119H105.871C79.1247 540.119 56.8361 517.837 56.8361 491.099V94.4782C55.7216 67.7397 78.0103 45.4576 105.871 45.4576ZM530.47 297.245H458.032C449.116 516.723 118.13 553.488 89.1546 297.245H80.2392C105.871 610.308 524.898 571.314 530.47 297.245ZM449.117 297.245H377.793C371.106 465.474 128.16 487.756 106.986 297.245H98.0701C120.359 537.891 441.315 510.038 449.117 297.245ZM367.763 297.245H305.355C300.897 416.454 133.732 426.481 124.816 297.245H114.787C128.16 472.159 365.534 455.447 367.763 297.245ZM80.2392 287.218H152.677C161.593 67.7397 492.579 30.9743 521.555 287.218H530.47C504.838 -24.7308 85.8113 13.1487 80.2392 287.218ZM161.593 287.218H232.916C239.603 118.988 482.55 96.7064 503.724 287.218H512.639C490.351 46.5717 169.394 74.4243 161.593 287.218ZM242.946 287.218H305.355C309.812 168.009 478.092 156.868 485.893 287.218H495.923C482.55 112.304 245.175 130.129 242.946 287.218Z" fill="#D63937"/>
<path d="M105.871 45.4576H501.495C528.241 45.4576 550.53 67.7397 550.53 94.4782V491.099C550.53 517.837 528.241 540.119 501.495 540.119H105.871C79.1247 540.119 56.8361 517.837 56.8361 491.099V94.4782C55.7216 67.7397 78.0103 45.4576 105.871 45.4576ZM530.47 297.245H458.032C449.116 516.723 118.13 553.488 89.1546 297.245H80.2392C105.871 610.308 524.898 571.314 530.47 297.245ZM449.117 297.245H377.793C371.106 465.474 128.16 487.756 106.986 297.245H98.0701C120.359 537.891 441.315 510.038 449.117 297.245ZM367.763 297.245H305.355C300.897 416.454 133.732 426.481 124.816 297.245H114.787C128.16 472.159 365.534 455.447 367.763 297.245ZM80.2392 287.218H152.677C161.593 67.7397 492.579 30.9743 521.555 287.218H530.47C504.838 -24.7308 85.8113 13.1487 80.2392 287.218ZM161.593 287.218H232.916C239.603 118.988 482.55 96.7064 503.724 287.218H512.639C490.351 46.5717 169.394 74.4243 161.593 287.218ZM242.946 287.218H305.355C309.812 168.009 478.092 156.868 485.893 287.218H495.923C482.55 112.304 245.175 130.129 242.946 287.218Z" fill="#ED1C24"/>
<path fill-rule="evenodd" clip-rule="evenodd" d="M80.2392 287.218H152.677C161.593 67.7397 492.579 30.9743 521.555 287.218H530.47C504.838 -24.7309 85.8113 13.1486 80.2392 287.218Z" fill="white"/>
<path fill-rule="evenodd" clip-rule="evenodd" d="M161.593 287.218H232.916C239.603 118.988 482.549 96.7064 503.724 287.218H512.639C490.351 46.5718 169.394 74.4243 161.593 287.218Z" fill="white"/>
<path fill-rule="evenodd" clip-rule="evenodd" d="M242.946 287.218H305.355C309.812 168.009 478.092 156.868 485.893 287.218H495.923C482.549 112.304 245.175 130.129 242.946 287.218Z" fill="white"/>
<path fill-rule="evenodd" clip-rule="evenodd" d="M530.47 297.245H458.032C449.116 516.723 118.13 553.488 89.1546 297.245H80.2392C105.871 610.308 524.898 571.314 530.47 297.245Z" fill="white"/>
<path fill-rule="evenodd" clip-rule="evenodd" d="M449.117 297.245H377.793C371.106 465.474 128.16 487.756 106.986 297.245H98.0701C120.359 537.891 441.315 510.038 449.117 297.245Z" fill="white"/>
<path fill-rule="evenodd" clip-rule="evenodd" d="M367.763 297.245H305.355C300.897 416.454 133.732 426.481 124.816 297.245H114.787C128.16 472.159 365.534 455.447 367.763 297.245Z" fill="white"/>
<path d="M610.709 317.299L663.088 309.5C665.316 319.527 669.774 327.326 676.461 332.896C683.147 338.467 693.177 340.695 705.436 340.695C718.809 340.695 728.839 338.467 735.526 332.896C739.983 329.554 742.212 325.097 742.212 319.527C742.212 315.07 741.098 312.842 738.869 309.5C736.64 307.272 729.954 305.044 721.038 302.815C678.69 293.902 651.943 284.99 640.799 277.191C625.197 266.05 617.396 251.567 617.396 232.627C617.396 215.915 624.082 201.432 637.456 189.177C650.829 178.036 672.003 171.351 699.864 171.351C726.61 171.351 746.67 175.808 760.043 184.72C773.416 193.633 782.332 207.002 786.79 223.714L737.755 232.627C735.526 224.828 732.182 219.258 725.496 214.801C721.038 211.459 713.237 209.231 702.093 209.231C688.72 209.231 678.69 211.459 673.118 214.801C668.66 217.029 667.545 221.486 667.545 224.828C667.545 228.17 669.774 231.513 673.118 233.741C677.575 237.083 694.292 241.54 722.153 248.224C750.013 254.909 768.959 262.708 780.103 271.62C791.247 280.533 796.82 293.902 796.82 310.614C796.82 328.44 789.019 344.037 774.531 357.406C758.929 370.776 736.64 376.346 707.665 376.346C680.919 376.346 659.744 370.776 644.142 359.635C626.311 350.722 615.167 335.124 610.709 317.299Z" fill="#404041"/>
</g>
<defs>
<clipPath id="clip0_204_130">
<rect width="611" height="574" fill="white"/>
</clipPath>
</defs>
</svg>
